# xmcd CD database file
#
# Track frame offsets:
#	150
#	14016
#	28897
#	42037
#	55233
#	70639
#	82540
#	96025
#	110706
#	124398
#	138756
#	154236
#	166583
#	179449
#	193231
#	204043
#	216522
#	229788
#	243117
#	254478
#	267360
#	280043
#
# Disc length: 3919 seconds
#
# Revision: 0
# Processed by: cddbd v1.5.1PL0 Copyright (c) Steve Scherf et al.
# Submitted via: CDex 1.51
#
DISCID=310f4d16
DTITLE=Howard McGhee - 1945-1946
DYEAR=1943
DGENRE=Jazz
TTITLE0=Intersection
TTITLE1=Lifestream
TTITLE2=Mop-Mop
TTITLE3=Stardust
TTITLE4=Deep Meditation
TTITLE5=Mad Hype
TTITLE6=11-45 Swing (Rummage Bounce)
TTITLE7=Playboy Blues
TTITLE8=Around The Clock - Part 1
TTITLE9=Around The Clock - Part 2
TTITLE10=Gee, I'm Lonesome
TTITLE11=Call It The Blues
TTITLE12=McGhee Jump (Cool Fantasy - Part 1)
TTITLE13=Cool Fantasy - Part 2
TTITLE14=Mcghee Special
TTITLE15=Sweet Potato
TTITLE16=Hoggin'
TTITLE17=Blues A La King
TTITLE18=Night Mist
TTITLE19=Be-Bop
TTITLE20=Trumpet At Tempo
TTITLE21=Thermodynamics
EXTD=YEAR: 1943
EXTT0=
EXTT1=
EXTT2=
EXTT3=
EXTT4=
EXTT5=
EXTT6=
EXTT7=
EXTT8=
EXTT9=
EXTT10=
EXTT11=
EXTT12=
EXTT13=
EXTT14=
EXTT15=
EXTT16=
EXTT17=
EXTT18=
EXTT19=
EXTT20=
EXTT21=
PLAYORDER=
